<?xml version="1.0" standalone="no"?>
<!DOCTYPE svg PUBLIC "-//W3C//DTD SVG 20010904//EN"
 "http://www.w3.org/TR/2001/REC-SVG-20010904/DTD/svg10.dtd">
<svg version="1.0" xmlns="http://www.w3.org/2000/svg"
 width="537.000000pt" height="424.000000pt" viewBox="0 0 537.000000 424.000000"
 preserveAspectRatio="xMidYMid meet">

<g transform="translate(0.000000,424.000000) scale(0.100000,-0.100000)"
fill="#000000" stroke="none">
<path d="M3034 3526 c-38 -38 -42 -64 -17 -107 l17 -28 -53 -51 c-31 -29 -63
-73 -78 -106 -25 -54 -25 -62 -18 -158 5 -56 9 -137 9 -181 1 -77 -1 -83 -40
-147 -56 -91 -71 -147 -53 -195 17 -42 39 -55 39 -22 0 31 75 101 145 134 68
32 267 98 380 126 115 29 339 38 383 15 56 -29 39 -45 -27 -26 -38 11 -230 -9
-355 -36 l-77 -17 25 -26 c39 -42 66 -94 66 -128 0 -18 4 -33 8 -33 24 0 146
47 221 85 110 55 164 95 197 144 47 72 20 115 -117 187 -85 45 -109 72 -144
166 -50 136 -79 190 -119 224 -41 35 -130 74 -170 74 -20 0 -24 6 -29 47 -7
65 -40 93 -109 93 -44 0 -54 -4 -84 -34z m118 -53 c10 -9 18 -22 18 -28 0 -14
-64 -30 -80 -20 -11 7 -14 48 -3 58 12 12 46 7 65 -10z m7 -140 c0 -5 -21 -21
-47 -38 -84 -53 -109 -148 -77 -291 l17 -78 -22 -18 c-12 -10 -26 -18 -30 -18
-13 0 -32 98 -37 195 -4 84 -3 94 24 145 23 46 37 60 82 83 53 26 92 35 90 20z
m276 -402 c-6 -5 -41 -19 -80 -29 -67 -19 -197 -73 -354 -148 -40 -19 -75 -33
-77 -31 -12 11 48 76 93 100 104 56 458 147 418 108z"/>
<path d="M2295 3493 c-385 -81 -703 -330 -864 -674 -56 -120 -87 -236 -106
-397 -15 -129 -15 -148 0 -229 32 -173 70 -266 170 -410 165 -237 350 -376
634 -478 160 -58 360 -79 508 -55 107 17 270 72 366 123 326 173 572 562 595
940 4 75 2 90 -13 107 -21 23 -48 26 -63 8 -5 -7 -13 -58 -17 -113 -24 -348
-187 -629 -482 -832 -42 -29 -84 -53 -93 -53 -8 0 -23 12 -32 28 -30 51 -71
81 -133 96 -54 14 -68 24 -131 89 -94 97 -128 169 -148 307 -9 58 -21 124 -28
148 -11 39 -11 43 9 57 l22 15 -43 84 c-49 95 -59 149 -44 220 12 59 74 125
162 175 95 55 150 136 168 246 11 74 -2 139 -32 155 -10 5 -68 10 -128 10
l-110 0 -48 46 c-74 72 -141 99 -244 98 -78 -1 -95 -5 -207 -51 -139 -57 -155
-69 -244 -174 -106 -127 -115 -203 -33 -286 40 -40 44 -48 38 -76 -22 -103
-124 -230 -225 -281 -90 -44 -93 -42 -86 67 28 451 355 851 802 982 180 53
426 56 574 8 l53 -18 25 29 c30 36 26 48 -23 64 -129 44 -402 57 -549 25z
m-18 -394 c24 -11 52 -32 63 -46 44 -57 79 -73 154 -73 68 0 72 -1 88 -30 9
-17 29 -35 43 -40 29 -11 31 -20 10 -59 -21 -41 -69 -79 -118 -92 -53 -14
-139 -5 -194 22 -35 17 -45 18 -62 7 -29 -18 -26 -35 10 -69 31 -29 77 -46
137 -51 19 -1 35 -5 37 -8 2 -4 -37 -24 -88 -45 -51 -21 -101 -45 -112 -53
-18 -12 -15 -13 28 -10 47 3 48 3 43 -22 -32 -143 -28 -190 31 -307 29 -57 34
-76 25 -85 -10 -10 -17 -10 -32 0 -27 16 -26 17 -26 -25 0 -21 -5 -51 -12 -68
-6 -16 -16 -55 -22 -87 -6 -31 -25 -77 -43 -105 l-32 -48 -5 77 c-3 42 -8 79
-11 82 -3 4 -9 -17 -13 -46 -14 -121 -44 -172 -127 -213 -27 -14 -51 -25 -54
-25 -11 0 -4 49 14 102 43 125 45 254 5 317 -47 74 -117 121 -181 121 l-38 0
48 -41 c106 -91 130 -215 73 -372 l-29 -77 17 -106 c10 -58 16 -107 14 -109
-12 -13 -103 49 -170 115 -63 62 -77 82 -82 115 -24 151 -39 205 -57 205 -5 0
-19 -21 -32 -47 l-24 -46 -26 44 c-37 62 -82 165 -100 226 -18 60 -21 56 78
106 39 19 89 49 113 66 53 39 125 136 166 223 l31 67 54 -45 c29 -24 61 -44
72 -44 27 0 85 55 108 104 28 56 28 148 1 211 -33 77 -36 119 -11 161 14 23
19 40 13 46 -15 15 -67 0 -91 -26 -35 -37 -36 -82 -5 -171 31 -92 35 -152 10
-190 l-17 -26 -27 21 c-15 11 -52 38 -82 59 -65 46 -105 87 -115 119 -9 31 21
76 116 172 70 71 79 77 169 107 118 39 202 43 267 12z m148 -1211 c0 -87 2
-97 35 -158 44 -82 192 -236 235 -245 79 -17 110 -31 125 -57 21 -39 8 -47
-90 -54 l-85 -6 -140 112 c-141 113 -255 217 -255 233 0 5 24 36 54 69 30 33
69 91 87 129 18 38 33 69 34 69 0 0 1 -42 0 -92z m-177 -314 c53 -41 129 -100
169 -130 39 -31 79 -66 88 -80 14 -22 14 -25 0 -30 -44 -17 -267 24 -374 68
-98 41 -118 61 -126 123 l-6 51 73 35 c40 20 74 37 76 37 1 1 46 -32 100 -74z"/>
<path d="M2202 3008 c-7 -7 -12 -24 -12 -38 0 -34 17 -50 52 -50 20 0 32 7 40
25 22 48 -43 100 -80 63z"/>
<path d="M3173 2670 c-29 -12 -63 -67 -63 -102 0 -34 50 -93 86 -102 64 -17
134 40 134 108 0 72 -88 126 -157 96z m62 -90 c0 -19 -35 -26 -46 -9 -4 7 -5
17 -2 22 8 14 48 3 48 -13z"/>
<path d="M3001 2622 c-103 -51 -141 -111 -85 -132 14 -6 59 -10 101 -10 68 0
74 2 68 18 -28 66 -29 73 -19 112 13 48 9 49 -65 12z"/>
<path d="M3788 2443 c-11 -12 -17 -50 -21 -118 -17 -293 -125 -558 -324 -792
-55 -65 -62 -93 -23 -93 32 0 63 25 129 105 157 192 258 411 296 647 18 113
20 239 3 256 -17 17 -42 15 -60 -5z"/>
<path d="M2927 2323 c-63 -88 -71 -115 -36 -133 28 -15 45 1 89 85 34 64 35
66 16 80 -28 21 -31 20 -69 -32z"/>
<path d="M3310 2345 c-9 -11 -7 -25 13 -67 35 -77 58 -102 85 -94 29 10 28 37
-5 94 -47 83 -68 98 -93 67z"/>
<path d="M3126 2298 c-3 -13 -6 -59 -6 -104 0 -91 12 -118 51 -112 23 3 24 5
23 93 -1 118 -8 145 -38 145 -16 0 -26 -7 -30 -22z"/>
<path d="M3883 1798 c-5 -7 -25 -40 -43 -73 -199 -360 -582 -647 -1035 -777
-57 -16 -164 -35 -248 -45 -130 -15 -172 -15 -330 -5 -100 7 -210 17 -245 23
-67 12 -90 5 -79 -24 10 -27 215 -63 424 -73 554 -28 1097 224 1457 676 83
104 179 262 174 287 -4 22 -60 30 -75 11z"/>
<path d="M1350 1351 c0 -24 96 -113 164 -152 82 -47 243 -106 351 -128 160
-33 435 -47 611 -32 150 12 327 50 415 89 46 20 110 83 91 90 -6 2 -73 -15
-149 -36 -76 -22 -178 -46 -228 -53 -116 -17 -449 -18 -585 -1 -217 28 -460
114 -567 203 -53 44 -103 53 -103 20z"/>
</g>
</svg>
